<svg xmlns="http://www.w3.org/2000/svg" xml:space="preserve" style="fill-rule:evenodd;clip-rule:evenodd;stroke-linejoin:round;stroke-miterlimit:2" viewBox="0 0 2001 1000">
  <path d="M5.00990363 4.999926h1989.99907344v989.99992H5.00990363z"/>
  <path d="M2038.765 2000h383.207v57.594h-383.207z" style="fill:red" transform="matrix(3.901318 0 0 .868144 -7453.870016 -1261.288715)"/>
  <path d="M2038.765 2000h383.207v57.594h-383.207z" style="fill:red" transform="rotate(-45 1099.42834285 5058.48232454)scale(1.752974 .868145)"/>
  <path d="M2038.765 2000h383.207v57.594h-383.207z" style="fill:red" transform="rotate(-45 1326.58413285 4510.07973555)scale(1.752974 .868145)"/>
  <path d="M2038.765 2000h383.207v57.594h-383.207z" style="fill:red" transform="rotate(-45 1570.15014972 3889.21664102)scale(1.752974 .868145)"/>
  <path d="M1404.574 1726.397h860.779v45.379h-860.779z" style="fill:#fff" transform="rotate(45 2867.2683418 -342.36660187)scale(.789983 1.101825)"/>
  <path d="M1404.574 1726.397h860.779v45.379h-860.779z" style="fill:#fff" transform="matrix(2.323503 0 0 1.101825 -3263.532573 -1902.188032)"/>
  <path d="M1404.574 1726.397h860.779v45.379h-860.779z" style="fill:#fff" transform="matrix(2.323503 0 0 1.101825 -3263.532573 -952.188032)"/>
  <path d="M1404.574 1726.397h860.779v45.379h-860.779z" style="fill:#fff" transform="matrix(0 1.161738 -1.101825 0 3902.210291 -1631.748126)"/>
  <path d="M1404.574 1726.397h860.779v45.379h-860.779z" style="fill:#fff" transform="matrix(0 1.161738 -1.101825 0 1952.188033 -1631.748126)"/>
  <path d="M1404.574 1726.397h860.779v45.379h-860.779z" style="fill:#fff" transform="rotate(-45 -33.83836694 4083.92491151)scale(1.568347 1.101825)"/>
</svg>
